<svg width="53" height="53" viewBox="0 0 53 53" fill="none" xmlns="http://www.w3.org/2000/svg">
<path d="M26.5 9.93734C26.5 8.47312 25.9184 7.06888 24.883 6.03352C23.8476 4.99816 22.4434 4.4165 20.9792 4.4165C19.515 4.4165 18.1107 4.99816 17.0754 6.03352C16.04 7.06888 15.4583 8.47312 15.4583 9.93734C14.2835 9.937 13.1297 10.2491 12.1152 10.8416C11.1007 11.4341 10.2621 12.2857 9.68517 13.3092C9.10828 14.3326 8.81391 15.4911 8.83225 16.6658C8.8506 17.8405 9.18098 18.9892 9.78955 19.9941C8.27803 20.2861 6.91535 21.0953 5.93546 22.2827C4.95557 23.47 4.41962 24.9615 4.41962 26.5009C4.41962 28.0404 4.95557 29.5319 5.93546 30.7192C6.91535 31.9066 8.27803 32.7157 9.78955 33.0078C9.18155 34.0127 8.85162 35.1611 8.83357 36.3355C8.81551 37.5099 9.10999 38.6679 9.68681 39.691C10.2636 40.7141 11.1021 41.5655 12.1163 42.1579C13.1304 42.7503 14.2838 43.0624 15.4583 43.0623C15.4586 44.5266 16.0406 45.9307 17.0761 46.9658C18.1117 48.001 19.5161 48.5824 20.9803 48.5821C22.4445 48.5818 23.8486 47.9998 24.8838 46.9643C25.9189 45.9287 26.5003 44.5243 26.5 43.0601" stroke="white" stroke-width="1.5" stroke-linecap="round" stroke-linejoin="round"/>
<path d="M26.5 43.0625C26.5 44.5267 27.0817 45.931 28.117 46.9663C29.1524 48.0017 30.5566 48.5834 32.0208 48.5834C33.485 48.5834 34.8893 48.0017 35.9247 46.9663C36.96 45.931 37.5417 44.5267 37.5417 43.0625C38.7162 43.0626 39.8696 42.7505 40.8838 42.1581C41.8979 41.5657 42.7364 40.7143 43.3132 39.6912C43.89 38.6681 44.1845 37.5101 44.1664 36.3357C44.1484 35.1613 43.8185 34.0129 43.2105 33.008C44.722 32.7159 46.0847 31.9068 47.0645 30.7194C48.0444 29.5321 48.5804 28.0406 48.5804 26.5011C48.5804 24.9617 48.0444 23.4702 47.0645 22.2829C46.0847 21.0955 44.722 20.2863 43.2105 19.9943C43.819 18.9893 44.1494 17.8407 44.1678 16.666C44.1861 15.4913 43.8917 14.3328 43.3148 13.3094C42.7379 12.2859 41.8993 11.4343 40.8848 10.8418C39.8703 10.2493 38.7165 9.93719 37.5417 9.93753C37.5418 9.21252 37.3992 8.49458 37.1218 7.82471C36.8445 7.15484 36.438 6.54614 35.9254 6.03338C35.4129 5.52062 34.8043 5.11384 34.1346 4.83626C33.4648 4.55868 32.7469 4.41573 32.0219 4.41559C30.5577 4.4153 29.1534 4.99667 28.1178 6.03182C27.0822 7.06697 26.5003 8.4711 26.5 9.93532" stroke="white" stroke-width="1.5" stroke-linecap="round" stroke-linejoin="round"/>
<path d="M23.1588 15.4606V19.8309M15.4584 23.1898H19.9899M33.1758 23.1898H37.7073M33.1758 29.7573H37.7073M15.4584 29.7573H19.9899M23.1588 33.1692V37.5417M29.839 33.1692V37.5417M29.8192 15.4584V19.8309M22.2004 33.0566H30.9697C31.5554 33.0566 32.1171 32.8239 32.5312 32.4098C32.9454 31.9956 33.178 31.4339 33.178 30.8482V22.0392C33.178 21.4535 32.9454 20.8918 32.5312 20.4777C32.1171 20.0635 31.5554 19.8309 30.9697 19.8309H22.2004C21.6147 19.8309 21.053 20.0635 20.6389 20.4777C20.2247 20.8918 19.9921 21.4535 19.9921 22.0392V30.8482C19.9921 31.4339 20.2247 31.9956 20.6389 32.4098C21.053 32.8239 21.6147 33.0566 22.2004 33.0566Z" stroke="white" stroke-width="1.5" stroke-linecap="round" stroke-linejoin="round"/>
</svg>
