<svg width="40" height="40" viewBox="0 0 40 40" fill="none" xmlns="http://www.w3.org/2000/svg">
<path d="M6.66669 18.3333V31.6666C6.66669 32.5507 7.01788 33.3985 7.643 34.0237C8.26812 34.6488 9.11597 35 10 35H30C30.8841 35 31.7319 34.6488 32.357 34.0237C32.9822 33.3985 33.3334 32.5507 33.3334 31.6666V18.3333" stroke="white" stroke-linecap="round" stroke-linejoin="round"/>
<path d="M20 9.16665C20 7.61955 19.3854 6.13582 18.2915 5.04186C17.1975 3.94789 15.7138 3.33331 14.1667 3.33331C13.0616 3.33331 12.0018 3.7723 11.2204 4.5537C10.439 5.3351 10 6.39491 10 7.49998C10 8.60505 10.439 9.66486 11.2204 10.4463C12.0018 11.2277 13.0616 11.6666 14.1667 11.6666H20M20 9.16665V11.6666M20 9.16665C20 7.61955 20.6146 6.13582 21.7085 5.04186C22.8025 3.94789 24.2862 3.33331 25.8333 3.33331C26.9384 3.33331 27.9982 3.7723 28.7796 4.5537C29.561 5.3351 30 6.39491 30 7.49998C30 8.04715 29.8922 8.58897 29.6828 9.09449C29.4734 9.60002 29.1665 10.0593 28.7796 10.4463C28.3927 10.8332 27.9334 11.1401 27.4278 11.3495C26.9223 11.5589 26.3805 11.6666 25.8333 11.6666H20" stroke="white" stroke-linejoin="round"/>
<path d="M20 18.3333V35M5 11.6666H35V18.3333H5V11.6666Z" stroke="white" stroke-linecap="round" stroke-linejoin="round"/>
</svg>
